<?xml version="1.0" encoding="UTF-8"?>
<svg viewBox="0 0 447.5 557.5" xmlns="http://www.w3.org/2000/svg">
 <g transform="matrix(1.25,0,0,-1.25,0,557.5)">
  <g transform="scale(.24)">
   <path d="m754.25 1853.2c-167.81 0.13-399.45-47.8-495-88-96.152-39.68-160.05-79.61-180-179l-72-554v-763h124v-119c-0.105-146.08 213.3-146.08 213 0v119h805v-119c0.15-146.08 213.56-146.08 214 0v119h123v763l-72 554c-19.49 99.39-83.39 139.32-179 179-96.09 40.2-327.73 88.13-495 88"/>
   <path d="m1256.25,508.25c56.3.445 102.14,46.289 102,103 .14,56.355-45.7,102.195-102,102-56.76.195-102.6-45.645-103-102 .4-56.711 46.24-102.555 103-103" fill="#fff"/>
   <path d="m238.25,508.25c-56.848.445-102.68,46.289-103,103 .32,56.355 46.152,102.195 103,102 56.223.195 102.059-45.645 102-102 .059-56.711-45.777-102.555-102-103" fill="#fff"/>
   <path d="m739.25,1623.25h-297c-59.496.49-59.496,90.35 0,90h609c59.95.35 59.95-89.51 0-90h-312" fill="#fff"/>
   <path d="m739.25,1533.25h-458c-63.375-.24-79.91-32.39-88-81l-56-402c-4.758-38.1 6.371-76.293 60-76h1100c53.09-.293 64.21,37.9 59,76l-56,402c-7.63,48.61-24.17,80.76-87,81h-474" fill="#fff"/>
  </g>
 </g>
</svg>
